<svg xmlns="http://www.w3.org/2000/svg" xmlns:xlink="http://www.w3.org/1999/xlink" viewBox="0,0,256,256" width="48px" height="48px"><g fill="none" fill-rule="nonzero" stroke="#ffffff" stroke-width="3" stroke-linecap="none" stroke-linejoin="none" stroke-miterlimit="10" stroke-dasharray="" stroke-dashoffset="0" font-family="none" font-weight="none" font-size="none" text-anchor="none" style="mix-blend-mode: normal"><g transform="scale(5.33333,5.33333)"><circle cx="24" cy="24" r="6.5" stroke-linecap="butt" stroke-linejoin="miter"></circle><path d="M30.8,35.7c1.2,-0.7 2.8,-0.8 4.1,-0.2l2.7,1.2c1.9,-2 3.4,-4.5 4.2,-7.3l-2.4,-1.7c-1.2,-0.8 -1.8,-2.2 -1.8,-3.6c0,-1.4 0.7,-2.8 1.8,-3.6l2.4,-1.7c-0.8,-2.8 -2.3,-5.2 -4.2,-7.3l-2.7,1.2c-1.3,0.6 -2.8,0.5 -4.1,-0.2c-1.3,-0.7 -2.1,-2 -2.2,-3.4l-0.4,-3.1c-1.4,-0.3 -2.8,-0.5 -4.2,-0.5c-1.4,0 -2.9,0.2 -4.2,0.5" stroke-linecap="round" stroke-linejoin="round"></path><path d="M17.3,12.3c-1.2,0.7 -2.8,0.8 -4.1,0.2l-2.7,-1.2c-1.9,2 -3.4,4.5 -4.2,7.3l2.4,1.7c1.2,0.8 1.8,2.2 1.8,3.6c0,1.4 -0.7,2.8 -1.8,3.6l-2.4,1.7c0.8,2.8 2.3,5.2 4.2,7.3l2.7,-1.2c1.3,-0.6 2.8,-0.5 4.1,0.2c1.3,0.7 2.1,2 2.2,3.4l0.3,2.9c1.4,0.3 2.8,0.5 4.2,0.5c1.4,0 2.9,-0.2 4.2,-0.5" stroke-linecap="round" stroke-linejoin="round"></path></g></g></svg>