<svg width="55" height="55" viewBox="0 0 55 55" fill="none" xmlns="http://www.w3.org/2000/svg">
<path d="M20.6251 34.375C20.1718 34.375 19.7288 34.5094 19.3519 34.7613C18.975 35.0131 18.6813 35.371 18.5079 35.7897C18.3344 36.2085 18.289 36.6693 18.3774 37.1138C18.4659 37.5583 18.6841 37.9667 19.0046 38.2872C19.3251 38.6077 19.7335 38.8259 20.178 38.9143C20.6225 39.0028 21.0833 38.9574 21.5021 38.7839C21.9208 38.6105 22.2787 38.3167 22.5305 37.9399C22.7823 37.563 22.9167 37.12 22.9167 36.6667C22.9167 36.0589 22.6753 35.476 22.2455 35.0463C21.8158 34.6165 21.2329 34.375 20.6251 34.375ZM4.58341 32.0834C3.97563 32.0834 3.39273 32.3248 2.96296 32.7546C2.53319 33.1844 2.29175 33.7673 2.29175 34.375V38.9584C2.29175 39.5662 2.53319 40.1491 2.96296 40.5788C3.39273 41.0086 3.97563 41.25 4.58341 41.25C5.1912 41.25 5.7741 41.0086 6.20387 40.5788C6.63364 40.1491 6.87508 39.5662 6.87508 38.9584V34.375C6.87508 33.7673 6.63364 33.1844 6.20387 32.7546C5.7741 32.3248 5.1912 32.0834 4.58341 32.0834ZM50.4167 32.0834C49.809 32.0834 49.2261 32.3248 48.7963 32.7546C48.3665 33.1844 48.1251 33.7673 48.1251 34.375V38.9584C48.1251 39.5662 48.3665 40.1491 48.7963 40.5788C49.2261 41.0086 49.809 41.25 50.4167 41.25C51.0245 41.25 51.6074 41.0086 52.0372 40.5788C52.467 40.1491 52.7084 39.5662 52.7084 38.9584V34.375C52.7084 33.7673 52.467 33.1844 52.0372 32.7546C51.6074 32.3248 51.0245 32.0834 50.4167 32.0834ZM38.9584 16.0417H29.7917V13.1084C30.4845 12.7085 31.0605 12.1342 31.4625 11.4427C31.8645 10.7512 32.0786 9.96656 32.0834 9.16671C32.0834 7.95113 31.6005 6.78534 30.741 5.9258C29.8814 5.06626 28.7157 4.58337 27.5001 4.58337C26.2845 4.58337 25.1187 5.06626 24.2592 5.9258C23.3996 6.78534 22.9167 7.95113 22.9167 9.16671C22.9216 9.96656 23.1356 10.7512 23.5377 11.4427C23.9397 12.1342 24.5157 12.7085 25.2084 13.1084V16.0417H16.0417C14.2184 16.0417 12.4697 16.766 11.1804 18.0553C9.89108 19.3447 9.16675 21.0933 9.16675 22.9167V43.5417C9.16675 45.3651 9.89108 47.1138 11.1804 48.4031C12.4697 49.6924 14.2184 50.4167 16.0417 50.4167H38.9584C40.7818 50.4167 42.5305 49.6924 43.8198 48.4031C45.1091 47.1138 45.8334 45.3651 45.8334 43.5417V22.9167C45.8334 21.0933 45.1091 19.3447 43.8198 18.0553C42.5305 16.766 40.7818 16.0417 38.9584 16.0417ZM31.4417 20.625L30.2959 25.2084H24.7042L23.5584 20.625H31.4417ZM41.2501 43.5417C41.2501 44.1495 41.0086 44.7324 40.5789 45.1622C40.1491 45.5919 39.5662 45.8334 38.9584 45.8334H16.0417C15.434 45.8334 14.8511 45.5919 14.4213 45.1622C13.9915 44.7324 13.7501 44.1495 13.7501 43.5417V22.9167C13.7501 22.3089 13.9915 21.726 14.4213 21.2963C14.8511 20.8665 15.434 20.625 16.0417 20.625H18.8376L20.6251 28.05C20.7506 28.5585 21.0464 29.0087 21.4634 29.3255C21.8803 29.6424 22.3933 29.807 22.9167 29.7917H32.0834C32.6069 29.807 33.1198 29.6424 33.5368 29.3255C33.9538 29.0087 34.2496 28.5585 34.3751 28.05L36.1626 20.625H38.9584C39.5662 20.625 40.1491 20.8665 40.5789 21.2963C41.0086 21.726 41.2501 22.3089 41.2501 22.9167V43.5417ZM34.3751 34.375C33.9218 34.375 33.4788 34.5094 33.1019 34.7613C32.725 35.0131 32.4313 35.371 32.2579 35.7897C32.0844 36.2085 32.039 36.6693 32.1274 37.1138C32.2159 37.5583 32.4341 37.9667 32.7546 38.2872C33.0751 38.6077 33.4835 38.8259 33.928 38.9143C34.3725 39.0028 34.8333 38.9574 35.2521 38.7839C35.6708 38.6105 36.0287 38.3167 36.2805 37.9399C36.5323 37.563 36.6667 37.12 36.6667 36.6667C36.6667 36.0589 36.4253 35.476 35.9955 35.0463C35.5658 34.6165 34.9829 34.375 34.3751 34.375Z" fill="#384D9D"/>
</svg>
