<svg xmlns="http://www.w3.org/2000/svg" width="23" height="14" viewBox="0 0 23 14" fill="none">
<path d="M22.4257 0.638964C22.1073 0.32066 21.6755 0.141846 21.2253 0.141846C20.7751 0.141846 20.3433 0.32066 20.0249 0.638964L11.6204 9.04351L3.21583 0.638964C2.89561 0.329681 2.46672 0.158542 2.02154 0.162411C1.57636 0.166279 1.1505 0.344845 0.835702 0.659647C0.5209 0.974449 0.342336 1.4003 0.338468 1.84548C0.3346 2.29066 0.505737 2.71955 0.815021 3.03978L10.42 12.6447C10.7384 12.963 11.1702 13.1418 11.6204 13.1418C12.0706 13.1418 12.5024 12.963 12.8208 12.6447L22.4257 3.03978C22.744 2.72138 22.9229 2.28959 22.9229 1.83937C22.9229 1.38915 22.744 0.957365 22.4257 0.638964Z" fill="#384D9D"/>
</svg>